<?xml version="1.0" encoding="utf-8"?>
<!-- Generator: Adobe Illustrator 24.0.0, SVG Export Plug-In . SVG Version: 6.00 Build 0)  -->
<svg version="1.1" id="Layer_1" xmlns="http://www.w3.org/2000/svg" xmlns:xlink="http://www.w3.org/1999/xlink" x="0px" y="0px"
	 viewBox="0 0 2004.9 1351.3" style="enable-background:new 0 0 2004.9 1351.3;" xml:space="preserve">
<g>
	<path d="M1444.1,276.5c-1.1,1.3-1.8,2-2.4,2.7c-0.8,1.1-1.6,2.2-2.1,2.9c-3-0.3-3.9-1.9-5.1-3.1c-9.4-9.3-18.7-18.6-28-28
		c-2.1-2.1-4.2-3-7.2-3c-25.4,0.1-50.8,0-76.2,0.1c-5,0-5.1,0.1-5.2,5.3c-0.2,15.9-0.3,31.9-0.5,47.8c-0.1,6.8,0,6-6.2,6
		c-122.9,0-245.7,0-368.6,0c-25.4,0-50.8,0-76.2,0c-1.4,0-2.8,0.1-4.1,0c-2.7-0.2-4.1,0.6-3.9,3.6c0.1,1.6,0,3.1,0,4.7
		c0,42.7,0,85.4,0,128.2c0,7.1,0,7.1-7.1,7c-1,0-2-0.1-3,0c-1.9,0-2.9-0.9-2.8-2.8c0-1.6,0-3.1,0-4.7c0-42.9,0-85.8,0-128.8
		c0-8.1,0.8-7.1-7.4-7.1c-124.6,0-249.3,0-373.9,0c-0.8,0-1.6,0-2.4,0c-5.1,0.1-5.1,0.1-5.1,5.2c0,70.3,0,140.6,0,210.9
		c0,4.8,0.1,4.8,4.8,4.9c1.2,0,2.4,0,3.5,0c124.1,0,248.1,0,372.2,0c9.7,0,8.2,1.3,8.3-8.6c0.1-6.5-0.2-13,0.1-19.5
		c0.1-3.4-1-5.9-3.5-8.2c-7.2-7-14.3-14.1-21.3-21.3c-4.3-4.3-4.6-3.6-0.1-8.1c0.6-0.5,1.2-1,1.7-1.5c1.8,0.4,2.7,1.8,3.8,2.9
		c10.2,10.1,20.4,20.3,30.7,30.3c1.1,1.1,1.6,2.1,1.6,3.5c0,1.2,0,2.4,0,3.5c0,63.6,0,127.2,0,190.8c0,8.2,0.9,7.2-7.2,7.3
		c-0.6,0-1.2-0.1-1.8,0c-3.3,0.5-4.1-1.3-3.9-4.1c0.1-1.6,0-3.1,0-4.7c-0.1-8.7,1-7.7-7.4-7.7c-15.6-0.1-31.1,0-46.7,0
		c-1.4,0-2.8-0.1-4.1,0c-2.2,0.1-3.1-0.6-3.3-3c-0.7-8.8-0.8-8.8,8.1-8.8c15.8,0,31.5,0,47.3,0c4.8,0,4.9-0.1,4.9-4.9
		c0-40.6,0-81.1,0-121.7c0-4.5-0.1-4.6-4.5-4.6c-37.4,0-74.8,0-112.2,0c-4.5,0-4.6,0.1-4.6,4.6c0,40.8,0,81.5,0,122.3
		c0,4.2,0.1,4.2,4.2,4.3c11.9,0.4,11.9,0.4,20.4-8.1c6.7-6.7,13.3-13.4,19.8-19.9c0.8,0.1,1.2,0,1.5,0.2c5.5,4.9,5.5,4.9,0.4,10.1
		c-8.8,8.8-17.6,17.5-26.3,26.4c-2.2,2.3-4.5,3.3-7.7,3.2c-6.7-0.2-13.4-0.2-20.1,0c-3.1,0.1-4-1.1-4-4.1c0.1-13.4,0-26.8,0-40.2
		c0-30.3,0-60.6,0-91c0-1.6-0.1-3.2,0-4.7c0.1-2.3-1-3.2-3.2-3c-1.2,0.1-2.4,0-3.5,0c-45.1,0-90.2,0-135.3,0c-0.4,0-0.8,0-1.2,0
		c-6.1,0-5.8-0.3-5.8,5.8c0,15.4,0,30.7,0,46.1c0,5.4-0.1,5.4-5.6,5.4c-0.8,0-1.6-0.1-2.4,0c-2.8,0.2-3.8-1.2-3.7-3.9
		c0.1-8.1,0-16.1,0-24.2c0-8.1,0-16.1,0-24.2c0-4.8-0.1-4.9-4.8-4.9c-17.3,0-34.7,0-52,0c-10.8,0-21.7,0-32.5,0
		c-4.4,0-4.5,0.1-4.5,4.6c0,31.9,0,63.8,0,95.7c0,4.8,0.1,4.9,4.8,4.9c28.2,0,56.3,0,84.5,0c1.4,0,3.4,0.9,4.2-1
		c0.9-2-0.5-3.3-1.8-4.6c-7.4-7.4-14.8-14.7-22.1-22.1c-1.5-1.5-3.3-2.8-4.4-4.9c0.3-0.5,0.4-1.1,0.8-1.5c4.3-4.9,4.3-4.9,8.9-0.4
		c9.2,9.2,18.3,18.4,27.6,27.5c2.1,2.1,3.2,4.2,3,7.2c-0.3,4.7,0.9,9.9-0.7,14c-1.5,3.9-5.9,6.7-9.1,9.9
		c-7.1,7.1-14.2,14.2-21.3,21.3c-4,4-4.1,4-8-0.3c-0.5-0.6-0.9-1.2-1.6-2.2c7.9-7.9,15.7-15.6,23.4-23.4c1.3-1.3,2.5-2.5,3.8-3.8
		c0.8-0.8,1.9-1.7,1.5-3c-0.5-1.5-1.9-1-3-1.1c-0.8-0.1-1.6,0-2.4,0c-27.4,0-54.7,0-82.1,0c-1,0-2,0.1-3,0c-2.3-0.2-3.3,0.8-3.1,3.1
		c0.1,1.2,0,2.4,0,3.5c0,30.7,0,61.4,0,92.1c0,7.1-0.5,6.4,6.2,6.4c27.2,0,54.3,0,81.5,0c0.6,0,1.2,0,1.8,0c4.2-0.1,4.3-0.1,4.3-4.2
		c0.1-10.2,0-20.5,0-30.7c0-6.3,0.1-12.6,0-18.9c-0.1-3,1-4.4,4.1-4c0.2,0,0.4,0,0.6,0c8,0.1,7.1-0.8,7.1,6.8c0,15,0,29.9,0,44.9
		c0,6.2,0,6.2,6,6.2c13.2,0,26.4,0,39.6,0c76.8,0,153.6,0,230.4,0c8.2,0,6.8,0.9,7.5-7.2c0.7-7.7-1.5-13.4-7.5-18.5
		c-6.7-5.7-12.7-12.4-18.9-18.7c-2.6-2.6-2.5-2.6,0.4-5.6c1.8-1.9,3.1-3.2,5.7-0.6c9.2,9.5,18.3,19,28.1,27.9
		c4,3.7,5.1,7.4,5.1,12.6c-0.2,45.1-0.1,90.2-0.1,135.3c0,7.7,0.8,6.9-7,6.9c-1,0-2-0.1-3,0c-1.9,0.1-3-0.6-2.9-2.7
		c0.1-1.6,0-3.1,0-4.7c0-35,0-70.1,0-105.1c0-1.4-0.1-2.8,0-4.1c0.2-2.7-0.7-4.1-3.6-3.8c-1.4,0.1-2.8,0-4.1,0
		c-124.4,0-248.9,0-373.3,0c-8.8,0-7.7-1.3-7.7,7.9c0,108.3,0,216.6,0,324.9c0,0.6,0,1.2,0,1.8c0,6.4,0,6.5,6.4,6.5
		c125.2,0,250.5,0,375.7,0c1,0,2-0.1,3,0c2.7,0.2,4.1-0.9,3.8-3.8c-0.1-1.2,0-2.4,0-3.5c0-54.1-0.1-108.3,0.1-162.4
		c0-4.6-1.4-7.7-4.6-10.8c-7.3-6.9-14.3-14.1-21.3-21.3c-1-1-3.1-1.9-2-3.7c1.1-1.8,2.6-3.6,4.7-4.4c1.5-0.6,2.3,1.1,3.3,2.1
		c8.4,8.3,16.7,16.7,25.1,25c2.5,2.5,6.1,4.5,7.2,7.4c1.3,3.2,0.4,7.4,0.4,11.1c0,91.8,0,183.5,0,275.3c0,8.5,1.1,7.4-7.6,7.5
		c-5.5,0-5.3,0.4-5.3-5.6c0-31.1,0-62.2,0-93.3c0-1.6-0.1-3.2,0-4.7c0.1-2.2-0.8-3.3-3.1-3.2c-1.6,0.1-3.1,0-4.7,0
		c-124.4,0-248.9,0-373.3,0c-8.7,0-7.7-0.6-7.7,7.5c0,56.3,0,112.6,0,168.9c0,1.2,0.1,2.4,0,3.5c-0.2,2.7,0.6,4.2,3.6,3.8
		c1.4-0.2,2.8,0,4.1,0c124.4,0,248.9,0,373.3,0c8.9,0,7.7,1.1,7.8-7.9c0.1-6.7-0.1-13.4,0.1-20.1c0.1-3-0.9-5.2-3-7.3
		c-7.9-7.7-15.6-15.5-23.4-23.4c-0.7-0.7-1.3-1.5-1.9-2.2c0.3-0.6,0.5-1.2,0.9-1.6c4.3-4.9,4.3-4.9,8.9-0.3
		c9.9,9.8,19.8,19.8,29.9,29.4c1.7,1.6,1.4,3,1.5,4.7c0.1,8.1,0,16.1,0.1,24.2c0,4.4,0.1,4.5,4.7,4.5c25,0,50,0.1,75-0.1
		c3.8,0,6.6,1,9.3,3.8c9.1,9.3,18.4,18.3,27.6,27.5c4,3.9,4.4,3.3,0,7.7c-0.7,0.7-1.5,1.3-2.6,2.3c-3.8-3.8-7.5-7.5-11.3-11.2
		c-4.9-4.9-9.9-9.6-14.6-14.7c-2.5-2.7-5.2-3.9-8.8-3.5c-1.4,0.2-2.8,0-4.1,0c-160.3,0-320.6,0-480.8,0c-9,0-7.9,1.3-7.9-7.7
		c0-189,0-378,0-567c0-8.8,1.3-8.1-8.3-8.1c-88.6,0-177.2,0-265.8,0c-8.8,0-9-0.2-8.2-8.8c0.2-1.9,0.7-3,2.7-2.9c2,0,3.9,0,5.9,0
		c88.6,0,177.2,0,265.8,0c9.2,0,7.9,0.5,7.9-7.9c0-134.9,0-269.7,0-404.6c0-8.7,1-7.7-7.4-7.7c-139.4,0-278.8,0-418.2,0
		c-8.6,0-7.6-1-7.6,7.5c0,135.1,0,270.1,0,405.2c0,8-1.1,7.5,7.7,7.5c30.7,0,61.4-0.1,92.2,0.1c4.1,0,7-1.1,9.8-4
		c7.2-7.6,14.7-14.8,22.1-22.2c3.9-3.9,3.9-3.9,7.7,0c0.5,0.6,1,1.2,1.6,1.8c-0.1,1.8-1.6,2.6-2.7,3.7c-9.6,9.6-19.3,19.2-28.7,28.9
		c-2.6,2.6-5.2,3.6-8.8,3.6C77.1,739,41.7,739,6.3,739c-0.8,0-1.6-0.1-2.4,0c-2.7,0.2-4.1-0.8-3.9-3.7c0.1-1.4,0-2.8,0-4.1
		c0-142.7,0-285.5,0-428.2c0-8.6-1-7.6,7.5-7.6c397.3,0,794.7,0,1192,0c9.8,0,9.8,0,9.8-10.1c0.2-92.5,0.3-185.1,0.4-277.6
		c0-8.7-1-7.7,7.4-7.7c250.3,0,500.5,0,750.8,0c8.2,0,7.2-1.1,7.3,7.1c1.8,84,0.3,168.1,0.7,252.1c0,4.1,1.1,7,4,9.8
		c7.8,7.5,15.4,15.2,23,22.9c0.9,0.9,2.5,1.9,1.3,3.4c-1.5,1.8-2.8,3.9-5.2,4.5c-0.6,0.1-1.6-0.9-2.3-1.6
		c-10.1-10.2-20.2-20.4-30.4-30.6c-1.5-1.5-2.3-3.1-2.1-5.2c0.1-1.8-0.1-3.5,0-5.3c0.1-2.2-0.8-3.3-3.1-3.2c-1.2,0.1-2.4,0-3.5,0
		c-38.8,0-77.6,0-116.4,0c-0.8,0-1.6,0-2.4,0c-4.4,0.1-4.5,0.1-4.5,4.7c-0.2,14.4-0.3,28.7-0.5,43.1c-0.1,5.3-0.2,5.3-5.7,5.3
		c-139.6,0-279.2,0-418.8,0c-1.2,0-2.4,0-3.5,0c-1.4,0-2.1-0.9-2.1-2.2c0-1.8-0.2-3.6,0-5.3c0.3-2.2-1.1-5.7,1.3-6.4
		c3.3-0.9,7.3-2.2,10.3,1.2c0.9,1,2.1,1,3.2,1c1.4,0,2.8,0,4.1,0c130.7,0,261.5,0,392.2,0c0.6,0,1.2,0,1.8,0c6.4,0,5.8,0,5.8-5.8
		c0.1-14,0.2-28,0.4-41.9c0.1-5.4,0.1-5.4,5.6-5.4c42.5,0,85.1,0,127.6,0c8.4,0,7.4,1.2,7.4-7.6c0-71.9,0-143.7,0-215.6
		c0-8.3,0.8-7.2-7.3-7.2c-242.4,0-484.8,0-727.2,0c-8.6,0-7.6-1-7.6,7.5c0,89.6,0,179.2,0,268.8c0,8.1-1,7.4,7.1,7.4
		c23.4,0,46.9,0,70.3,0c1,0,2,0,3,0c4.1-0.1,4.2-0.1,4.2-4.4c0.1-12.6,0.1-25.2,0.1-37.8c0-4.3,0.2-8.7,0-13c-0.1-3.2,1.2-4,4.2-4
		c5.5,0.2,11,0,16.5,0c27.2,0,54.3,0,81.5,0c1.4,0,2.8,0.1,4.1,0c2.1-0.1,3.1,1,2.7,2.9c-1.7,7.6,3,11.9,7.8,16.5
		C1430.2,262.4,1436.9,269.3,1444.1,276.5z"/>
	<path d="M1143,1031.8c-2.1-0.8-3.2-2.5-4.6-3.8c-8.5-8.5-16.9-17.1-25.6-25.4c-2.9-2.8-4.1-5.5-3.9-9.6c0.4-11.4,0.1-22.8,0.1-34.3
		c0-38.8,0-77.6,0-116.4c0-7.9-0.9-6.9,6.9-7c4.7,0,4.8,0.1,4.8,5c0,27.8,0,55.5,0,83.3c0,1.6,0,3.2,0,4.7c0.1,4.4,0.1,4.4,4.7,4.6
		c1.4,0,2.8,0,4.1,0c198.7,0,397.3,0,596,0c10.1,0,8.8,1.3,8.8-8.7c0-50.8,0-101.6,0-152.4c0-1.6-0.1-3.2,0-4.7
		c0.3-3.2-1.2-4.2-4.1-3.9c-1.2,0.1-2.4,0-3.5,0c-199.5,0-398.9,0-598.4,0c-8.6,0-7.6-1.2-7.7,7.4c0,4.9,0.3,9.9-0.1,14.8
		c-0.4,4.6,1.4,7.7,4.6,10.8c7,6.6,13.7,13.6,20.5,20.4c1,1,3.1,1.8,2.1,3.7c-1,1.9-2.7,3.4-4.6,4.5c-1,0.6-1.8-0.5-2.4-1.1
		c-10.2-10.1-20.3-20.3-30.5-30.5c-1-1-1.5-1.9-1.5-3.5c0.2-40.4,0.2-80.7,0.3-121.1c0-13.6,0-27.2,0-40.8c0-5,0.1-5.1,5.2-5.1
		c6.9,0,6.4-0.6,6.4,6.3c0,38.2,0,76.4,0,114.6c0,1.6,0.1,3.2,0,4.7c-0.1,2.2,0.8,3.3,3.1,3.1c1.6-0.1,3.1,0,4.7,0
		c199.3,0,398.5,0,597.8,0c1,0,2,0,3,0c5.1-0.1,5.1-0.1,5.1-5.2c0-62,0-124,0-186.1c0-4.9-0.1-4.9-4.8-4.9c-1.2,0-2.4,0-3.5,0
		c-199.1,0-398.1,0-597.2,0c-9.3,0-8.1-1.4-8.1,8.1c0,5.1-1,10.6,0.6,15.2c1.6,4.6,6.7,7.5,10.3,11.1c5.6,5.6,11.3,11,16.7,16.2
		c-0.3,1.1-0.3,1.5-0.5,1.8c-4.8,5.5-4.8,5.5-10,0.3c-8.8-8.8-17.5-17.6-26.4-26.3c-2-2-2.5-3.8-2.5-6.6c0.3-14.6,0.1-29.1,0.1-43.7
		c0-33.9,0-67.7,0-101.6c0-1.4,0.1-2.8,0-4.1c-0.2-2.7,0.6-3.9,3.6-3.8c9.7,0.2,8-0.7,8.1,7.7c0.1,35.8,0,71.7,0,107.5
		c0,7.4-0.5,6.5,6.7,6.5c276.4,0,552.9,0,829.3,0c1,0,2-0.1,3,0c3.3,0.4,4.1-1.3,3.9-4.1c-0.1-0.8,0-1.6,0-2.4
		c0-56.3,0-112.6,0-168.9c0-7.5,0.5-6.6-6.7-6.6c-276.4,0-552.9,0-829.3,0c-0.8,0-1.6,0-2.4,0c-4.4,0.1-4.4,0.1-4.5,4.7
		c-0.3,11.5-0.3,11.5,8,19.9c6.3,6.3,12.5,12.6,18.8,18.8c0.3,0.3,0.4,0.7,0.7,1.1c-0.2,0.5-0.4,1.1-0.8,1.5c-5.6,5.8-4.3,4.9-9.3,0
		c-8.7-8.6-17.2-17.3-26-25.8c-2.4-2.4-3.5-4.6-3.3-8.1c0.5-6.7,0.2-13.4,0.1-20.1c-0.1-2.8,0.9-4,3.8-3.7c2,0.2,3.9,0,5.9,0
		c279,0,558,0,837,0c10.2,0,8.6,1.4,8.7-8.7c0.1-8.9,0.1-17.7,0-26.6c0-3,0.8-4.2,4-4.2c9.4,0.1,7.8-0.2,7.8,7.4
		c0,76.2,0,152.4,0,228.6c0,0.6,0,1.2,0,1.8c-0.1,7.2-0.1,7.2-7.2,7.2c-71.9,0-143.7,0-215.6,0c-8,0-7.2-0.9-7.2,7.3
		c0,250.2,0,500.5,0,750.7c0,8.6,0,8.6-8.8,8.6c-229.6,0-459.2,0-688.8-0.1c-5.4,0-9.1,1.5-12.8,5.4c-7.6,8.2-15.7,15.9-23.5,23.7
		c-0.8-0.3-1.2-0.3-1.4-0.5c-5.6-5.1-5.6-5.1-0.1-10.5c8.9-8.9,18-17.7,26.8-26.7c2.2-2.3,4.6-3.2,7.8-3.2
		c18.9,0.1,37.8,0.1,56.7,0.1c1.4,0,2.8-0.1,4.1,0c2,0.1,2.9-0.8,2.8-2.8c-0.1-1.4,0-2.8,0-4.1c0-21.7,0-43.3,0-65
		c0-1.4,0.1-2.8,0-4.1c-0.1-2.3,0.9-3.1,3.1-3.1c10.5,0.1,8.5-0.7,8.5,7.8c0.1,21.5,0,42.9,0,64.4c0,1.4,0.1,2.8,0,4.1
		c-0.1,1.9,0.6,3,2.7,2.9c1.4-0.1,2.8,0,4.1,0c93.9,0,187.8,0,281.8,0c0.8,0,1.6,0,2.4,0c4.4-0.1,4.5-0.1,4.5-4.7c0-50,0-100,0-150
		c0-4.8-0.1-4.8-5.5-4.8c-34.7,0-69.3,0-104,0c-59.1,0-118.1,0-177.2,0c-0.8,0-1.6,0-2.4,0c-6.8,0.1-6.4-0.8-6.4,6.3
		c0,8.5,0.1,16.9-0.1,25.4c-0.1,3.4,0.9,5.9,3.4,8.3c7.4,7.1,14.6,14.4,21.7,21.7c1,1,3.1,1.8,2,3.7c-1.1,1.8-2.6,3.5-4.6,4.5
		c-1,0.5-1.8-0.5-2.4-1.2c-10.2-10.2-20.3-20.3-30.5-30.5c-1-1-1.4-2-1.4-3.6c0.2-36,0.2-72.1,0.2-108.1c0-10,0-20.1,0-30.1
		c0-4.9,0.1-4.9,4.7-5c0.6,0,1.2,0,1.8,0c5.1,0.1,5.1,0.1,5.1,5.2c0,28.4,0,56.7,0,85.1c0,7.4-0.6,6.6,6.7,6.6c97.7,0,195.3,0,293,0
		c8.4,0,7.4-1,7.5,7.7c0,52,0,104,0,155.9c0,8.8-1,7.7,7.4,7.7c97.3,0,194.5,0,291.8,0c8.1,0,7.4,1.1,7.4-7.1
		c0-117.1,0-234.3,0-351.4c0-7.8,0.9-7.2-7.4-7.2c-199.7,0-399.3,0-599,0c-8.2,0-7.3-0.6-7.3,7.3c0,14,0.1,28-0.1,41.9
		c0,3.2,0.9,5.5,3.2,7.8c7.2,7,14.3,14.1,21.3,21.3c3.6,3.6,3.6,3.7,0,7.2C1144.5,1030.6,1143.7,1031.2,1143,1031.8z"/>
	<path d="M1060.9,1086.4c0,44.9,0,89.7,0,134.6c0,7.1,0.5,6.4-6.2,6.4c-45.8,0-91.7,0-137.5,0c-1,0-2-0.1-3,0
		c-2.2,0.1-3.3-0.8-3.2-3.1c0.1-1.4,0-2.8,0-4.1c0-89.3,0-178.7,0-268c0-7.9-0.7-7,6.9-7c45.5,0,90.9,0,136.4,0
		c7.2,0,6.7-0.9,6.7,6.6C1060.9,996.7,1060.9,1041.5,1060.9,1086.4z M1055.1,1086.2c0-42.5,0-85,0-127.5c0-1.6-0.1-3.2,0-4.7
		c0.1-2.4-1.1-3.1-3.2-3c-0.8,0.1-1.6,0-2.4,0c-42.3,0-84.6,0-127,0c-6.1,0-5.8-0.3-5.8,5.8c0,0.4,0,0.8,0,1.2
		c0,85.6,0,171.2,0,256.9c0,7.3-0.8,6.8,6.5,6.8c41.7,0,83.5,0,125.2,0c1.2,0,2.4-0.1,3.5,0c2.3,0.2,3.2-0.9,3.1-3.1
		c-0.1-1.6,0-3.1,0-4.7C1055.1,1171.2,1055.1,1128.7,1055.1,1086.2z"/>
	<path d="M1060.9,722.4c0,40.1,0,80.3,0,120.4c0,7.4,0.6,6.6-6.7,6.6c-45.5,0-90.9,0-136.4,0c-0.8,0-1.6,0-2.4,0
		c-4.4-0.1-4.5-0.1-4.5-4.7c0-16.7,0-33.4,0-50.2c0-63.9,0-127.9,0-191.8c0-8.2-0.7-7.2,7.3-7.2c45.1,0,90.1,0,135.2,0c1,0,2,0,3,0
		c4.4,0.1,4.4,0.1,4.5,4.7c0,19.1,0,38.2,0,57.3C1060.9,679.1,1060.9,700.7,1060.9,722.4z M916.8,722.4c0,38.6,0,77.2,0,115.7
		c0,5.3,0.1,5.4,4.9,5.4c42.9,0,85.8,0,128.7,0c4.6,0,4.6-0.1,4.7-4.5c0-0.6,0-1.2,0-1.8c0-76.6,0-153.1,0-229.7
		c0-7.1,0.4-6.3-6.4-6.3c-41.7,0-83.5,0-125.2,0c-7.3,0-6.8-0.7-6.8,6.6C916.8,646,916.8,684.2,916.8,722.4z"/>
	<path d="M628.5,652.7c0,23.4,0,46.8,0,70.2c0,1.6,0,3.1,0,4.7c0,1.7-0.9,2.4-2.6,2.4c-8.1,0-16.1,0-24.2,0c-1.7,0-2.6-0.7-2.6-2.4
		c0-1.4,0-2.8,0-4.1c0-47.2,0-94.4,0-141.5c0-7.4-0.4-6.5,6.8-6.6c5.9,0,11.8,0,17.7,0c4.8,0,4.9,0.1,4.9,4.8c0,16.5,0,33,0,49.5
		C628.5,637.4,628.5,645.1,628.5,652.7z M616.8,653.1c0-19.7,0-39.4,0-59c0-1.6,0-3.1,0-4.7c0-1.9-1.2-2.2-2.7-2.2
		c-1.7,0-3.2,0.1-3.2,2.4c0,1.2,0,2.4,0,3.5c0,39.7,0,79.5,0,119.2c0,1.4,0,2.8,0.1,4.1c0.1,2,1.7,1.8,3,1.9
		c1.5,0.1,2.8-0.2,2.8-2.1c0-1.6,0.1-3.1,0.1-4.7C616.8,692,616.8,672.6,616.8,653.1z"/>
	<path d="M985.7,559.9c-22.4,0-44.9,0-67.3,0c-1.4,0-2.8-0.1-4.1,0c-2.7,0.2-3.5-1.2-3.3-3.6c0-0.6,0-1.2,0-1.8
		c0-22.8,0-45.6,0-68.5c0-5.7,0.1-5.7,5.9-5.7c46,0,92.1,0,138.1,0c1,0,2,0.1,3,0c1.9-0.1,3,0.7,2.9,2.7c0,1.2,0,2.4,0,3.5
		c0,22.4,0,44.8,0,67.3c0,1.2,0,2.4,0,3.5c0,1.8-0.9,2.4-2.6,2.4c-1.4,0-2.8,0-4.1,0C1031.4,559.9,1008.5,559.9,985.7,559.9z
		 M985.9,554.1c20.8,0,41.7,0,62.5,0c1.4,0,2.8,0,4.1,0c1.7,0,2.5-0.8,2.5-2.5c0-1,0-2,0-2.9c0-19.1,0-38.2,0-57.2
		c0-0.8,0-1.6,0-2.4c0.1-1.9-0.7-3-2.7-2.9c-1.6,0-3.1,0-4.7,0c-18.3,0-36.6,0-54.9,0c-23.6,0-47.2,0-70.8,0c-5.1,0-5.2,0.1-5.2,5.3
		c0,12,0,24,0,36c0,7.7,0.1,15.3,0,23c0,2.8,0.8,4.1,3.7,3.8c1.4-0.1,2.8,0,4.1,0C945,554.1,965.5,554.1,985.9,554.1z"/>
</g>
</svg>
