<?xml version="1.0" encoding="UTF-8"?> <svg xmlns="http://www.w3.org/2000/svg" xmlns:xlink="http://www.w3.org/1999/xlink" viewBox="0 0 216 207.85"> <defs> <style>.cls-1{fill:none;}.cls-2{clip-path:url(#clip-path);}.cls-3{fill:#003a5d;}.cls-4{fill:#b1b1b1;}.cls-5{fill:#4e738a;}</style> <clipPath id="clip-path" transform="translate(0 0)"> <rect class="cls-1" width="216" height="207.85"></rect> </clipPath> </defs> <title>Development</title> <g id="Layer_2" data-name="Layer 2"> <g id="Layer_1-2" data-name="Layer 1"> <g id="Development"> <g class="cls-2"> <polygon class="cls-3" points="21.46 147.75 14.25 169.62 7.58 147.84 0 147.84 10.98 180.24 17.14 180.24 24.41 159.19 31.67 180.24 37.83 180.24 48.81 147.84 41.41 147.84 34.75 169.62 27.53 147.75 21.46 147.75"></polygon> <polygon class="cls-3" points="55.9 147.84 80.17 147.84 80.17 154.13 62.93 154.13 62.93 160.66 78.1 160.66 78.1 166.96 62.93 166.96 62.93 173.72 80.39 173.72 80.39 180.01 55.9 180.01 55.9 147.84"></polygon> <polygon class="cls-3" points="91.29 147.84 98.37 147.84 98.37 173.58 114.41 173.58 114.41 180.01 91.29 180.01 91.29 147.84"></polygon> <polygon class="cls-3" points="123.42 147.84 130.5 147.84 130.5 173.58 146.54 173.58 146.54 180.01 123.42 180.01 123.42 147.84"></polygon> <polygon class="cls-3" points="154.64 147.84 178.91 147.84 178.91 154.13 161.67 154.13 161.67 160.66 176.84 160.66 176.84 166.96 161.67 166.96 161.67 173.72 179.13 173.72 179.13 180.01 154.64 180.01 154.64 147.84"></polygon> <g class="cls-2"> <path class="cls-3" d="M188.19,147.84H202.9c4.09,0,7.26,1.15,9.38,3.26a10.12,10.12,0,0,1,2.75,7.36v.09a10,10,0,0,1-6.89,10L216,180h-8.27l-6.9-10.29h-5.56V180h-7.08Zm14.25,15.63c3.45,0,5.42-1.84,5.42-4.55v-.1c0-3-2.11-4.59-5.56-4.59h-7v9.24Z" transform="translate(0 0)"></path> <rect class="cls-3" x="22.62" y="199.87" width="11.17" height="1.36"></rect> <path class="cls-3" d="M49.79,193.06a2.78,2.78,0,0,1,2.12.82,3.52,3.52,0,0,1,.78,2.52v7.85a3.57,3.57,0,0,1-.78,2.53,2.81,2.81,0,0,1-2.12.81h-3V193.06Zm-1.3,12.88h1.17c.89,0,1.34-.52,1.34-1.58v-8.07c0-1-.45-1.58-1.34-1.58H48.49Z" transform="translate(0 0)"></path> <polygon class="cls-3" points="63.75 193.06 63.75 194.71 60.65 194.71 60.65 199.28 62.84 199.28 62.84 200.93 60.65 200.93 60.65 205.94 63.75 205.94 63.75 207.59 58.94 207.59 58.94 193.06 63.75 193.06"></polygon> <polygon class="cls-3" points="70.93 193.06 72.58 203.86 74.27 193.06 75.92 193.06 73.42 207.59 71.73 207.59 69.26 193.06 70.93 193.06"></polygon> <polygon class="cls-3" points="86.56 193.06 86.56 194.71 83.46 194.71 83.46 199.28 85.65 199.28 85.65 200.93 83.46 200.93 83.46 205.94 86.56 205.94 86.56 207.59 81.75 207.59 81.75 193.06 86.56 193.06"></polygon> <polygon class="cls-3" points="94.3 193.06 94.3 205.94 97.02 205.94 97.02 207.59 92.59 207.59 92.59 193.06 94.3 193.06"></polygon> <path class="cls-3" d="M108.49,204.94a2.92,2.92,0,0,1-.23,1.22,2.69,2.69,0,0,1-1.6,1.5,3.38,3.38,0,0,1-1.15.19,3.44,3.44,0,0,1-1.18-.19,2.48,2.48,0,0,1-1-.58,2.6,2.6,0,0,1-.63-.92,2.92,2.92,0,0,1-.23-1.22v-9.22a3,3,0,0,1,.23-1.23,2.56,2.56,0,0,1,.63-.91,2.59,2.59,0,0,1,1-.57,3.22,3.22,0,0,1,1.18-.21,3.17,3.17,0,0,1,1.15.21,2.72,2.72,0,0,1,1,.57,2.59,2.59,0,0,1,.64.91,3,3,0,0,1,.23,1.23Zm-4.28,0a1.24,1.24,0,0,0,.36,1,1.53,1.53,0,0,0,1.87,0,1.24,1.24,0,0,0,.36-1v-9.19a1.21,1.21,0,0,0-.36-.95,1.49,1.49,0,0,0-1.87,0,1.21,1.21,0,0,0-.36.95Z" transform="translate(0 0)"></path> <path class="cls-3" d="M117.75,193.06a2.78,2.78,0,0,1,2.12.82,3.52,3.52,0,0,1,.78,2.52v2.12a3.52,3.52,0,0,1-.78,2.52,2.78,2.78,0,0,1-2.12.82h-1.3v5.73h-1.7V193.06Zm-1.3,7.15h1.17c.9,0,1.34-.53,1.34-1.58v-2.34c0-1-.44-1.58-1.34-1.58h-1.17Z" transform="translate(0 0)"></path> <polygon class="cls-3" points="128.57 193.06 130.84 204.59 133.23 193.06 134.94 193.06 134.94 207.59 133.42 207.59 133.42 198.22 131.63 207.59 130.06 207.59 128.24 198.09 128.24 207.59 126.72 207.59 126.72 193.06 128.57 193.06"></polygon> <polygon class="cls-3" points="146.09 193.06 146.09 194.71 142.99 194.71 142.99 199.28 145.18 199.28 145.18 200.93 142.99 200.93 142.99 205.94 146.09 205.94 146.09 207.59 141.29 207.59 141.29 193.06 146.09 193.06"></polygon> <polygon class="cls-3" points="153.98 193.06 156.45 203.08 156.45 193.06 157.93 193.06 157.93 207.59 156.41 207.59 153.61 196.9 153.61 207.59 152.13 207.59 152.13 193.06 153.98 193.06"></polygon> <polygon class="cls-3" points="168.77 193.06 168.77 194.71 167.14 194.71 167.14 207.59 165.43 207.59 165.43 194.71 163.8 194.71 163.8 193.06 168.77 193.06"></polygon> <rect class="cls-3" x="182.38" y="199.87" width="11.17" height="1.36"></rect> <polygon class="cls-4" points="1.21 0 74.01 122.58 146.8 0 1.21 0"></polygon> <polygon class="cls-5" points="69.31 0 108.01 65.16 146.71 0 69.31 0"></polygon> <polygon class="cls-3" points="215 0 146.8 0 108.11 65.16 142.2 122.58 215 0"></polygon> </g> </g> </g> </g> </g> </svg> 